<?xml version="1.0" encoding="utf-8"?>
<svg xmlns="http://www.w3.org/2000/svg" style="margin: auto; background: rgba(0, 2, 4, 0); display: block; shape-rendering: crispedges; animation-play-state: running; animation-delay: 0s;" width="280" height="34" preserveAspectRatio="xMidYMid">
<style type="text/css" style="animation-play-state: running; animation-delay: 0s;">
  text {
    text-anchor: middle; font-size: 27px; opacity: 0;
  }
</style>
<g style="transform-origin: 140px 17px; transform: scale(1); animation-play-state: running; animation-delay: 0s;">
<g transform="translate(140,17)" style="animation-play-state: running; animation-delay: 0s;">
  <g transform="translate(0,0)" style="animation-play-state: running; animation-delay: 0s;"><g class="path" style="transform: matrix(1, 0, 0, 1, 0, 14.925); opacity: 0.05; transform-origin: -127.86px -1.9209px; animation: 1s linear 0.152308s 1 normal forwards running float-btt-in-d38a381a-c02b-4819-85d4-f5163b281999;"><path d="M10.03-9.58L10.03-9.58L10.03-9.58Q10.29-10.26 10.46-10.98L10.46-10.98L10.46-10.98Q10.64-11.69 10.64-12.30L10.64-12.30L10.64-12.30Q10.64-12.91 10.21-14.55L10.21-14.55L10.21-14.55Q9.45-17.31 8.91-17.82L8.91-17.82L8.75-18.01L8.75-18.01Q8.48-18.17 8.48-18.39L8.48-18.39L8.48-18.39Q8.48-18.85 9.69-19.17L9.69-19.17L9.69-19.17Q10.91-19.49 11.68-19.49L11.68-19.49L11.68-19.49Q12.45-19.49 12.58-19.04L12.58-19.04L12.58-19.04Q12.91-18.04 13.30-16.15L13.30-16.15L13.30-16.15Q13.69-14.26 13.97-12.89L13.97-12.89L13.97-12.89Q14.26-11.53 14.42-10.80L14.42-10.80L14.42-10.80Q14.58-10.07 14.85-8.91L14.85-8.91L14.85-8.91Q15.36-6.75 15.88-5.37L15.88-5.37L15.88-5.37Q16.04-5.00 16.27-5.00L16.27-5.00L16.27-5.00Q16.50-5.00 16.75-5.47L16.75-5.47L16.75-5.47Q17.01-5.94 17.46-6.82L17.46-6.82L17.46-6.82Q17.90-7.70 18.64-9.94L18.64-9.94L18.64-9.94Q19.39-12.18 19.39-13.82L19.39-13.82L19.39-13.82Q19.39-16.36 17.71-17.41L17.71-17.41L17.71-17.41Q17.58-17.58 17.58-17.77L17.58-17.77L17.58-17.77Q17.58-17.95 17.77-18.14L17.77-18.14L17.77-18.14Q17.95-18.28 18.31-18.51L18.31-18.51L18.31-18.51Q18.66-18.74 19.71-19.10L19.71-19.10L19.71-19.10Q20.76-19.47 21.60-19.47L21.60-19.47L21.60-19.47Q22.44-19.47 22.60-19.24L22.60-19.24L22.60-19.24Q22.76-19.01 22.76-18.41L22.76-18.41L22.76-18.41Q22.76-15.79 21.21-11.46L21.21-11.46L21.21-11.46Q19.66-7.13 17.91-3.82L17.91-3.82L17.91-3.82Q16.17-0.51 15.31 0.32L15.31 0.32L15.31 0.32Q14.85 0.73 14.77 0.73L14.77 0.73L14.77 0.73Q14.53 0.73 14.31 0.35L14.31 0.35L14.31 0.35Q13.39-1.19 12.31-5.67L12.31-5.67L12.31-5.67Q11.83-7.78 11.74-8.05L11.74-8.05L11.74-8.05Q11.66-8.32 11.61-8.32L11.61-8.32L11.61-8.32Q11.47-8.32 11.37-8.05L11.37-8.05L11.37-8.05Q10.42-5.86 9.26-3.77L9.26-3.77L9.26-3.77Q8.10-1.67 7.40-0.68L7.40-0.68L6.72 0.32L6.72 0.32Q6.45 0.70 6.18 0.70L6.18 0.70L6.18 0.70Q5.91 0.70 5.70 0.35L5.70 0.35L5.70 0.35Q4.97-1.03 3.92-4.97L3.92-4.97L3.56-6.32L3.56-6.32Q3.46-6.70 3.08-8.37L3.08-8.37L3.08-8.37Q1.65-14.77 0.89-16.36L0.89-16.36L0.89-16.36Q0.46-17.25 0.15-17.52L0.15-17.52L0.15-17.52Q-0.16-17.79-0.35-17.85L-0.35-17.85L-0.35-17.85Q-0.65-17.98-0.65-18.18L-0.65-18.18L-0.65-18.18Q-0.65-18.39-0.43-18.58L-0.43-18.58L-0.43-18.58Q-0.11-18.82 1.00-19.16L1.00-19.16L1.00-19.16Q2.11-19.49 2.86-19.49L2.86-19.49L2.86-19.49Q3.62-19.49 3.75-19.04L3.75-19.04L3.75-19.04Q4.29-18.04 5.02-14.55L5.02-14.55L5.02-14.55Q6.56-7.26 7.29-5.37L7.29-5.37L7.29-5.37Q7.42-5.00 7.67-5.00L7.67-5.00L7.67-5.00Q7.91-5.00 8.10-5.40L8.10-5.40L8.10-5.40Q8.34-5.64 9.06-7.28L9.06-7.28L9.06-7.28Q9.77-8.91 10.03-9.58" fill="#85a2b6" stroke="none" stroke-width="none" transform="translate(-138.91500854492188,7.459103463979877)" style="fill: rgb(160, 13, 30); animation-play-state: running; animation-delay: 0s;"></path></g><g class="path" style="transform: matrix(1, 0, 0, 1, 0, 14.925); opacity: 0.05; transform-origin: -112.2px 1.5841px; animation: 1s linear 0.355385s 1 normal forwards running float-btt-in-d38a381a-c02b-4819-85d4-f5163b281999;"><path d="M25.06-6.86L25.06-6.86L25.08-6.18L25.08-6.18Q25.08-6.02 25.30-6.02L25.30-6.02L25.30-6.02Q26.16-6.10 26.81-6.47L26.81-6.47L26.81-6.47Q27.46-6.83 27.78-7.29L27.78-7.29L27.78-7.29Q28.43-8.29 28.48-9.02L28.48-9.02L28.51-9.34L28.51-9.34Q28.51-10.80 27.35-10.80L27.35-10.80L27.35-10.80Q26.49-10.80 25.95-10.04L25.95-10.04L25.95-10.04Q25.06-8.86 25.06-6.86zM30.94-3.27L30.94-3.27L30.94-3.27Q30.94-2.24 30.52-1.47L30.52-1.47L30.52-1.47Q30.11-0.70 29.58-0.34L29.58-0.34L29.58-0.34Q29.05 0.03 28.35 0.24L28.35 0.24L28.35 0.24Q27.46 0.51 26.65 0.51L26.65 0.51L26.65 0.51Q24.38 0.51 23.30-1.19L23.30-1.19L23.30-1.19Q22.22-2.89 22.22-5.52L22.22-5.52L22.22-5.52Q22.22-8.15 23.56-10.21L23.56-10.21L23.56-10.21Q24.89-12.26 27.57-12.26L27.57-12.26L27.57-12.26Q30.00-12.26 30.86-10.56L30.86-10.56L30.86-10.56Q31.21-9.91 31.21-9.33L31.21-9.33L31.21-9.33Q31.21-8.75 31.16-8.41L31.16-8.41L31.16-8.41Q31.10-8.07 30.78-7.40L30.78-7.40L30.78-7.40Q30.46-6.72 29.92-6.18L29.92-6.18L29.92-6.18Q29.38-5.64 28.21-5.16L28.21-5.16L28.21-5.16Q27.05-4.67 25.49-4.51L25.49-4.51L25.49-4.51Q25.27-4.51 25.27-4.32L25.27-4.32L25.27-4.32Q25.27-4.08 25.45-3.60L25.45-3.60L25.45-3.60Q25.62-3.13 25.84-2.81L25.84-2.81L25.84-2.81Q26.43-2.05 27.59-2.05L27.59-2.05L27.59-2.05Q28.76-2.05 29.57-2.81L29.57-2.81L29.57-2.81Q30.00-3.21 30.27-3.81L30.27-3.81L30.27-3.81Q30.38-4.02 30.55-4.02L30.55-4.02L30.55-4.02Q30.73-4.02 30.83-3.73L30.83-3.73L30.83-3.73Q30.94-3.43 30.94-3.27" fill="#85a2b6" stroke="none" stroke-width="none" transform="translate(-138.91500854492188,7.459103463979877)" style="fill: rgb(133, 162, 182); animation-play-state: running; animation-delay: 0s;"></path></g><g class="path" style="transform: matrix(1, 0, 0, 1, 0, 14.925); opacity: 0.05; transform-origin: -105.03px -1.6109px; animation: 1s linear 0.634615s 1 normal forwards running float-btt-in-d38a381a-c02b-4819-85d4-f5163b281999;"><path d="M35.80-15.44L35.80-15.44L35.64-5.54L35.64-5.54Q35.64-0.89 35.94 0.03L35.94 0.03L35.94 0.03Q36.02 0.19 36.02 0.35L36.02 0.35L36.02 0.35Q36.02 0.68 35.23 0.68L35.23 0.68L35.23 0.68Q34.45 0.68 33.49 0.28L33.49 0.28L33.49 0.28Q32.54-0.11 32.54-0.73L32.54-0.73L32.54-0.73Q33.08-4.51 33.08-10.83L33.08-10.83L32.97-14.96L32.97-14.96Q32.91-15.71 32.66-16.25L32.66-16.25L32.66-16.25Q32.40-16.79 32.16-16.96L32.16-16.96L31.94-17.09L31.94-17.09Q31.75-17.20 31.75-17.33L31.75-17.33L31.75-17.33Q31.75-17.71 32.93-18.27L32.93-18.27L32.93-18.27Q34.10-18.82 35.21-18.82L35.21-18.82L35.21-18.82Q35.64-18.82 35.69-18.52L35.69-18.52L35.69-18.52Q35.80-17.82 35.80-15.44" fill="#85a2b6" stroke="none" stroke-width="none" transform="translate(-138.91500854492188,7.459103463979877)" style="fill: rgb(214, 146, 147); animation-play-state: running; animation-delay: 0s;"></path></g><g class="path" style="transform: matrix(1, 0, 0, 1, 0, 14.925); opacity: 0.05; transform-origin: -96.89px 1.5591px; animation: 1s linear 0.431538s 1 normal forwards running float-btt-in-d38a381a-c02b-4819-85d4-f5163b281999;"><path d="M46.47-3.10L46.47-3.10L46.47-3.10Q46.47-1.57 45.24-0.55L45.24-0.55L45.24-0.55Q44.01 0.46 42.31 0.46L42.31 0.46L42.31 0.46Q39.83 0.46 38.66-1.04L38.66-1.04L38.66-1.04Q37.50-2.54 37.50-5.10L37.50-5.10L37.50-5.10Q37.50-7.83 38.72-9.94L38.72-9.94L38.72-9.94Q39.31-11.02 40.42-11.64L40.42-11.64L40.42-11.64Q41.53-12.26 43.01-12.26L43.01-12.26L43.01-12.26Q45.25-12.26 46.17-10.75L46.17-10.75L46.17-10.75Q46.55-10.13 46.55-9.29L46.55-9.29L46.55-9.29Q46.55-7.99 45.47-7.34L45.47-7.34L45.47-7.34Q45.04-7.10 44.67-7.10L44.67-7.10L44.67-7.10Q44.31-7.10 44.08-7.14L44.08-7.14L44.08-7.14Q43.85-7.18 43.47-7.51L43.47-7.51L43.47-7.51Q43.09-7.83 43.09-8.40L43.09-8.40L43.09-8.40Q43.12-8.69 43.55-8.88L43.55-8.88L43.55-8.88Q43.96-9.13 43.96-9.75L43.96-9.75L43.96-9.75Q43.96-10.80 42.66-10.80L42.66-10.80L42.66-10.80Q42.34-10.80 41.89-10.52L41.89-10.52L41.89-10.52Q41.45-10.23 41.15-9.79L41.15-9.79L41.15-9.79Q40.85-9.34 40.59-8.38L40.59-8.38L40.59-8.38Q40.34-7.42 40.34-6.55L40.34-6.55L40.34-6.55Q40.34-5.67 40.41-5.22L40.41-5.22L40.41-5.22Q40.47-4.78 40.70-4.01L40.70-4.01L40.70-4.01Q40.93-3.24 41.57-2.75L41.57-2.75L41.57-2.75Q42.20-2.27 43.15-2.27L43.15-2.27L43.15-2.27Q44.28-2.27 45.14-3.21L45.14-3.21L45.14-3.21Q45.50-3.59 45.71-4.13L45.71-4.13L45.71-4.13Q45.82-4.35 45.98-4.35L45.98-4.35L45.98-4.35Q46.22-4.35 46.35-3.90L46.35-3.90L46.35-3.90Q46.47-3.46 46.47-3.10" fill="#85a2b6" stroke="none" stroke-width="none" transform="translate(-138.91500854492188,7.459103463979877)" style="fill: rgb(205, 231, 229); animation-play-state: running; animation-delay: 0s;"></path></g><g class="path" style="transform: matrix(1, 0, 0, 1, 0, 14.925); opacity: 0.05; transform-origin: -86.09px 1.6291px; animation: 1s linear 0.456923s 1 normal forwards running float-btt-in-d38a381a-c02b-4819-85d4-f5163b281999;"><path d="M50.54-10.18L50.54-10.18L50.54-10.18Q49.84-10.15 49.53-10.14L49.53-10.14L49.53-10.14Q49.22-10.13 49.22-10.29L49.22-10.29L49.22-10.29Q49.22-10.45 49.38-10.61L49.38-10.61L49.38-10.61Q51.11-12.20 55.22-12.20L55.22-12.20L55.22-12.20Q56.62-12.20 57.43-11.96L57.43-11.96L57.70-11.88L57.70-11.88Q58.02-11.74 58.02-11.58L58.02-11.58L58.02-11.58Q58.02-11.45 57.83-11.37L57.83-11.37L57.83-11.37Q57.11-11.15 56.43-10.68L56.43-10.68L56.43-10.68Q55.76-10.21 55.76-10.02L55.76-10.02L55.92-9.83L55.92-9.83Q56.78-9.34 57.25-8.29L57.25-8.29L57.25-8.29Q57.73-7.24 57.78-6.43L57.78-6.43L57.83-5.59L57.83-5.59Q57.83-2.92 56.35-1.19L56.35-1.19L56.35-1.19Q54.86 0.54 52.30 0.54L52.30 0.54L52.30 0.54Q51.00 0.54 50.06 0.08L50.06 0.08L50.06 0.08Q49.11-0.38 48.67-0.96L48.67-0.96L48.67-0.96Q48.22-1.54 47.95-2.27L47.95-2.27L47.95-2.27Q47.63-3.27 47.63-4.33L47.63-4.33L47.63-4.33Q47.63-5.40 47.99-6.48L47.99-6.48L47.99-6.48Q48.36-7.56 48.83-8.07L48.83-8.07L48.83-8.07Q49.30-8.59 49.90-8.91L49.90-8.91L49.90-8.91Q50.65-9.31 51.11-9.31L51.11-9.31L51.11-9.31Q51.57-9.31 51.57-9.13L51.57-9.13L51.41-8.86L51.41-8.86Q50.81-8.15 50.56-7.02L50.56-7.02L50.56-7.02Q50.30-5.89 50.30-5.01L50.30-5.01L50.30-5.01Q50.30-4.13 50.52-3.27L50.52-3.27L50.52-3.27Q50.73-2.40 51.00-1.98L51.00-1.98L51.00-1.98Q51.27-1.57 51.62-1.35L51.62-1.35L51.62-1.35Q52.14-1.03 52.70-1.03L52.70-1.03L52.70-1.03Q53.27-1.03 53.81-1.47L53.81-1.47L53.81-1.47Q54.35-1.92 54.59-2.65L54.59-2.65L54.59-2.65Q55.08-4.00 55.08-5.43L55.08-5.43L55.08-5.43Q55.08-7.70 53.93-8.94L53.93-8.94L53.93-8.94Q52.79-10.18 50.54-10.18" fill="#85a2b6" stroke="none" stroke-width="none" transform="translate(-138.91500854492188,7.459103463979877)" style="fill: rgb(214, 146, 147); animation-play-state: running; animation-delay: 0s;"></path></g><g class="path" style="transform: matrix(1, 0, 0, 1, 0, 14.925); opacity: 0.05; transform-origin: -71.79px 1.5741px; animation: 1s linear 0.101538s 1 normal forwards running float-btt-in-d38a381a-c02b-4819-85d4-f5163b281999;"><path d="M65.34 0.16L65.34 0.16L65.34 0.16Q65.72-1.73 65.72-5.14L65.72-5.14L65.72-5.14Q65.72-8.56 65.69-9.18L65.69-9.18L65.69-9.18Q65.66-9.80 65.31-10.18L65.31-10.18L65.31-10.18Q64.96-10.56 64.71-10.61L64.71-10.61L64.71-10.61Q64.45-10.66 63.99-10.66L63.99-10.66L63.99-10.66Q63.53-10.66 63.10-10.25L63.10-10.25L63.10-10.25Q62.67-9.83 62.59-9.40L62.59-9.40L62.48-8.96L62.48-8.96Q62.40-8.15 62.40-5.37L62.40-5.37L62.40-5.37Q62.40-2.59 62.52-1.88L62.52-1.88L62.52-1.88Q62.64-1.16 62.64-0.92L62.64-0.92L62.64-0.92Q62.64-0.68 62.42-0.43L62.42-0.43L62.42-0.43Q61.51 0.54 59.83 0.54L59.83 0.54L59.83 0.54Q59.24 0.54 59.24 0.19L59.24 0.19L59.24 0.19Q59.78-3.05 59.78-8.07L59.78-8.07L59.78-8.07Q59.78-9.94 59.70-10.58L59.70-10.58L59.59-11.45L59.59-11.45Q59.56-11.74 59.48-12.10L59.48-12.10L59.48-12.10Q59.48-12.42 60.32-12.42L60.32-12.42L60.32-12.42Q61.56-12.42 61.96-11.50L61.96-11.50L61.96-11.50Q61.99-11.39 62.07-11.39L62.07-11.39L62.07-11.39Q62.15-11.39 62.45-11.61L62.45-11.61L62.45-11.61Q63.34-12.31 64.85-12.31L64.85-12.31L64.85-12.31Q65.72-12.31 66.55-11.99L66.55-11.99L66.55-11.99Q67.39-11.66 67.72-11.12L67.72-11.12L67.72-11.12Q67.74-11.07 67.80-11.07L67.80-11.07L67.80-11.07Q67.85-11.07 67.96-11.18L67.96-11.18L67.96-11.18Q69.09-12.31 70.90-12.31L70.90-12.31L70.90-12.31Q73.30-12.31 74.20-10.58L74.20-10.58L74.20-10.58Q74.52-9.91 74.52-8.88L74.52-8.88L74.52-8.88Q74.52-7.86 74.36-5.97L74.36-5.97L74.36-5.97Q74.20-4.08 74.20-3.08L74.20-3.08L74.20-3.08Q74.20-2.08 74.40-1.27L74.40-1.27L74.40-1.27Q74.60-0.46 74.80-0.11L74.80-0.11L74.80-0.11Q75.01 0.24 75.01 0.30L75.01 0.30L75.01 0.30Q75.01 0.65 74.25 0.65L74.25 0.65L74.25 0.65Q72.39 0.65 71.66-0.11L71.66-0.11L71.66-0.11Q70.93-0.86 70.93-2.09L70.93-2.09L70.93-2.09Q70.93-3.32 71.43-5.41L71.43-5.41L71.43-5.41Q71.93-7.51 71.93-8.56L71.93-8.56L71.93-8.56Q71.93-10.69 70.20-10.69L70.20-10.69L70.20-10.69Q69.47-10.69 69.04-10.26L69.04-10.26L69.04-10.26Q68.61-9.83 68.53-9.40L68.53-9.40L68.47-8.96L68.47-8.96Q68.36-7.72 68.36-5.97L68.36-5.97L68.36-5.97Q68.36-4.21 68.42-3.23L68.42-3.23L68.42-3.23Q68.47-2.24 68.53-1.69L68.53-1.69L68.53-1.69Q68.58-1.13 68.58-1.03L68.58-1.03L68.58-1.03Q68.58-0.27 67.63 0.14L67.63 0.14L67.63 0.14Q66.69 0.54 65.80 0.54L65.80 0.54L65.80 0.54Q65.34 0.54 65.34 0.16" fill="#85a2b6" stroke="none" stroke-width="none" transform="translate(-138.91500854492188,7.459103463979877)" style="fill: rgb(214, 146, 147); animation-play-state: running; animation-delay: 0s;"></path></g><g class="path" style="transform: matrix(1, 0, 0, 1, 0, 14.925); opacity: 0.05; transform-origin: -58.79px 1.5841px; animation: 1s linear 0.203077s 1 normal forwards running float-btt-in-d38a381a-c02b-4819-85d4-f5163b281999;"><path d="M78.46-6.86L78.46-6.86L78.49-6.18L78.49-6.18Q78.49-6.02 78.70-6.02L78.70-6.02L78.70-6.02Q79.57-6.10 80.22-6.47L80.22-6.47L80.22-6.47Q80.86-6.83 81.19-7.29L81.19-7.29L81.19-7.29Q81.84-8.29 81.89-9.02L81.89-9.02L81.92-9.34L81.92-9.34Q81.92-10.80 80.76-10.80L80.76-10.80L80.76-10.80Q79.89-10.80 79.35-10.04L79.35-10.04L79.35-10.04Q78.46-8.86 78.46-6.86zM84.35-3.27L84.35-3.27L84.35-3.27Q84.35-2.24 83.93-1.47L83.93-1.47L83.93-1.47Q83.51-0.70 82.98-0.34L82.98-0.34L82.98-0.34Q82.46 0.03 81.76 0.24L81.76 0.24L81.76 0.24Q80.86 0.51 80.05 0.51L80.05 0.51L80.05 0.51Q77.79 0.51 76.71-1.19L76.71-1.19L76.71-1.19Q75.63-2.89 75.63-5.52L75.63-5.52L75.63-5.52Q75.63-8.15 76.96-10.21L76.96-10.21L76.96-10.21Q78.30-12.26 80.97-12.26L80.97-12.26L80.97-12.26Q83.40-12.26 84.27-10.56L84.27-10.56L84.27-10.56Q84.62-9.91 84.62-9.33L84.62-9.33L84.62-9.33Q84.62-8.75 84.56-8.41L84.56-8.41L84.56-8.41Q84.51-8.07 84.19-7.40L84.19-7.40L84.19-7.40Q83.86-6.72 83.32-6.18L83.32-6.18L83.32-6.18Q82.78-5.64 81.62-5.16L81.62-5.16L81.62-5.16Q80.46-4.67 78.89-4.51L78.89-4.51L78.89-4.51Q78.68-4.51 78.68-4.32L78.68-4.32L78.68-4.32Q78.68-4.08 78.85-3.60L78.85-3.60L78.85-3.60Q79.03-3.13 79.24-2.81L79.24-2.81L79.24-2.81Q79.84-2.05 81.00-2.05L81.00-2.05L81.00-2.05Q82.16-2.05 82.97-2.81L82.97-2.81L82.97-2.81Q83.40-3.21 83.67-3.81L83.67-3.81L83.67-3.81Q83.78-4.02 83.96-4.02L83.96-4.02L83.96-4.02Q84.13-4.02 84.24-3.73L84.24-3.73L84.24-3.73Q84.35-3.43 84.35-3.27" fill="#85a2b6" stroke="none" stroke-width="none" transform="translate(-138.91500854492188,7.459103463979877)" style="fill: rgb(187, 206, 221); animation-play-state: running; animation-delay: 0s;"></path></g><g class="path" style="transform: matrix(1, 0, 0, 1, 0, 14.925); opacity: 0.05; transform-origin: -43.89px -2.1409px; animation: 1s linear 0.126923s 1 normal forwards running float-btt-in-d38a381a-c02b-4819-85d4-f5163b281999;"><path d="M92.80-19.22L92.80-19.22L96.69-19.01L96.69-19.01Q99.28-19.01 100.41-19.63L100.41-19.63L100.41-19.63Q100.57-19.74 100.70-19.74L100.70-19.74L100.70-19.74Q100.82-19.74 100.82-19.36L100.82-19.36L100.82-19.36Q100.82-18.98 100.36-18.12L100.36-18.12L100.36-18.12Q99.68-16.79 98.41-16.79L98.41-16.79L96.93-16.82L96.93-16.82Q96.71-16.82 96.66-16.58L96.66-16.58L96.66-16.58Q96.47-12.61 96.47-8.01L96.47-8.01L96.47-8.01Q96.47-3.40 96.85-1.08L96.85-1.08L96.85-0.94L96.85-0.94Q96.85-0.27 95.57 0.14L95.57 0.14L95.57 0.14Q94.28 0.54 93.15 0.54L93.15 0.54L93.15 0.54Q92.61 0.54 92.61 0.24L92.61 0.24L92.61 0.24Q92.61 0.16 92.69-0.14L92.69-0.14L92.69-0.14Q92.99-0.73 93.22-5.89L93.22-5.89L93.22-5.89Q93.45-11.04 93.45-13.66L93.45-13.66L93.39-16.61L93.39-16.61Q93.39-16.77 93.23-16.79L93.23-16.79L93.23-16.79Q92.66-16.90 91.94-16.90L91.94-16.90L91.94-16.90Q90.48-16.90 89.77-16.31L89.77-16.31L89.77-16.31Q89.59-16.17 89.41-16.17L89.41-16.17L89.41-16.17Q89.23-16.17 89.23-16.39L89.23-16.39L89.23-16.39Q89.23-16.71 89.57-17.28L89.57-17.28L89.57-17.28Q89.91-17.85 90.29-18.25L90.29-18.25L90.29-18.25Q91.21-19.22 92.80-19.22" fill="#85a2b6" stroke="none" stroke-width="none" transform="translate(-138.91500854492188,7.459103463979877)" style="fill: rgb(190, 89, 96); animation-play-state: running; animation-delay: 0s;"></path></g><g class="path" style="transform: matrix(1, 0, 0, 1, 0, 14.925); opacity: 0.05; transform-origin: -34.68px 1.6291px; animation: 1s linear 0.0507692s 1 normal forwards running float-btt-in-d38a381a-c02b-4819-85d4-f5163b281999;"><path d="M101.95-10.18L101.95-10.18L101.95-10.18Q101.25-10.15 100.94-10.14L100.94-10.14L100.94-10.14Q100.63-10.13 100.63-10.29L100.63-10.29L100.63-10.29Q100.63-10.45 100.79-10.61L100.79-10.61L100.79-10.61Q102.52-12.20 106.62-12.20L106.62-12.20L106.62-12.20Q108.03-12.20 108.84-11.96L108.84-11.96L109.11-11.88L109.11-11.88Q109.43-11.74 109.43-11.58L109.43-11.58L109.43-11.58Q109.43-11.45 109.24-11.37L109.24-11.37L109.24-11.37Q108.51-11.15 107.84-10.68L107.84-10.68L107.84-10.68Q107.16-10.21 107.16-10.02L107.16-10.02L107.32-9.83L107.32-9.83Q108.19-9.34 108.66-8.29L108.66-8.29L108.66-8.29Q109.13-7.24 109.19-6.43L109.19-6.43L109.24-5.59L109.24-5.59Q109.24-2.92 107.76-1.19L107.76-1.19L107.76-1.19Q106.27 0.54 103.71 0.54L103.71 0.54L103.71 0.54Q102.41 0.54 101.47 0.08L101.47 0.08L101.47 0.08Q100.52-0.38 100.08-0.96L100.08-0.96L100.08-0.96Q99.63-1.54 99.36-2.27L99.36-2.27L99.36-2.27Q99.04-3.27 99.04-4.33L99.04-4.33L99.04-4.33Q99.04-5.40 99.40-6.48L99.40-6.48L99.40-6.48Q99.77-7.56 100.24-8.07L100.24-8.07L100.24-8.07Q100.71-8.59 101.30-8.91L101.30-8.91L101.30-8.91Q102.06-9.31 102.52-9.31L102.52-9.31L102.52-9.31Q102.98-9.31 102.98-9.13L102.98-9.13L102.82-8.86L102.82-8.86Q102.22-8.15 101.97-7.02L101.97-7.02L101.97-7.02Q101.71-5.89 101.71-5.01L101.71-5.01L101.71-5.01Q101.71-4.13 101.92-3.27L101.92-3.27L101.92-3.27Q102.14-2.40 102.41-1.98L102.41-1.98L102.41-1.98Q102.68-1.57 103.03-1.35L103.03-1.35L103.03-1.35Q103.55-1.03 104.11-1.03L104.11-1.03L104.11-1.03Q104.68-1.03 105.22-1.47L105.22-1.47L105.22-1.47Q105.76-1.92 106.00-2.65L106.00-2.65L106.00-2.65Q106.49-4.00 106.49-5.43L106.49-5.43L106.49-5.43Q106.49-7.70 105.34-8.94L105.34-8.94L105.34-8.94Q104.19-10.18 101.95-10.18" fill="#85a2b6" stroke="none" stroke-width="none" transform="translate(-138.91500854492188,7.459103463979877)" style="fill: rgb(220, 228, 235); animation-play-state: running; animation-delay: 0s;"></path></g><g class="path" style="transform: matrix(1, 0, 0, 1, 0, 14.925); opacity: 0.05; transform-origin: -14.77px -2.1809px; animation: 1s linear 0.228462s 1 normal forwards running float-btt-in-d38a381a-c02b-4819-85d4-f5163b281999;"><path d="M116.15-10.50L116.15-10.50L116.02-15.61L116.02-15.61Q116.02-16.82 115.75-17.52L115.75-17.52L115.75-17.52Q115.48-18.23 115.48-18.28L115.48-18.28L115.48-18.28Q115.48-18.87 117.30-19.20L117.30-19.20L117.30-19.20Q119.12-19.52 120.08-19.52L120.08-19.52L120.08-19.52Q121.04-19.52 121.12-19.06L121.12-19.06L121.12-19.06Q122.82-11.47 123.98-8.53L123.98-8.53L123.98-8.53Q124.12-8.21 124.27-8.21L124.27-8.21L124.27-8.21Q124.42-8.21 124.52-8.45L124.52-8.45L124.52-8.45Q126.33-13.55 127.71-18.55L127.71-18.55L127.71-18.55Q127.82-18.87 128.25-19.05L128.25-19.05L128.25-19.05Q128.68-19.22 129.75-19.39L129.75-19.39L129.75-19.39Q130.81-19.55 131.87-19.55L131.87-19.55L131.87-19.55Q132.92-19.55 132.92-19.12L132.92-19.12L132.92-19.12Q132.92-19.09 132.84-18.70L132.84-18.70L132.84-18.70Q132.76-18.31 132.68-17.74L132.68-17.74L132.68-17.74Q132.60-17.17 132.49-16.36L132.49-16.36L132.49-16.36Q132.25-14.50 132.18-12.08L132.18-12.08L132.18-12.08Q132.11-9.67 132.11-7.24L132.11-7.24L132.16-4.40L132.16-4.40Q132.16-2.46 132.42-1.63L132.42-1.63L132.42-1.63Q132.68-0.81 132.68-0.69L132.68-0.69L132.68-0.69Q132.68-0.57 132.49-0.40L132.49-0.40L132.49-0.40Q131.65 0.27 129.95 0.27L129.95 0.27L129.95 0.27Q128.87 0.27 128.74-0.46L128.74-0.46L128.74-0.46Q128.66-0.84 128.66-1.66L128.66-1.66L128.66-1.66Q128.66-2.48 128.82-6.72L128.82-6.72L128.82-6.72Q128.98-10.96 128.98-12.89L128.98-12.89L128.98-12.89Q128.98-14.82 128.76-14.82L128.76-14.82L128.76-14.82Q128.74-14.82 128.74-14.81L128.74-14.81L128.74-14.81Q128.74-14.80 128.66-14.77L128.66-14.77L128.66-14.77Q128.57-14.74 128.24-13.93L128.24-13.93L128.24-13.93Q127.90-13.12 126.90-9.94L126.90-9.94L126.90-9.94Q125.90-6.75 125.09-3.98L125.09-3.98L125.09-3.98Q124.28-1.22 124.20-1.00L124.20-1.00L124.20-1.00Q123.90-0.27 123.07-0.27L123.07-0.27L123.07-0.27Q122.66-0.27 122.42-0.57L122.42-0.57L122.42-0.57Q121.55-4.56 119.34-11.99L119.34-11.99L118.58-14.45L118.58-14.45Q118.53-14.58 118.48-14.58L118.48-14.58L118.48-14.58Q118.34-14.58 118.29-14.39L118.29-14.39L118.29-14.39Q118.18-12.64 118.18-7.49L118.18-7.49L118.18-7.49Q118.18-2.35 118.56-1.00L118.56-1.00L118.56-1.00Q118.58-0.94 118.58-0.84L118.58-0.84L118.58-0.84Q118.58-0.27 117.69-0.01L117.69-0.01L117.69-0.01Q116.80 0.24 116.09 0.24L116.09 0.24L116.09 0.24Q115.37 0.24 115.37-0.08L115.37-0.08L115.37-0.08Q115.37-0.11 115.51-0.51L115.51-0.51L115.51-0.51Q115.91-1.89 116.03-4.51L116.03-4.51L116.03-4.51Q116.15-7.13 116.15-10.50" fill="#85a2b6" stroke="none" stroke-width="none" transform="translate(-138.91500854492188,7.459103463979877)" style="fill: rgb(220, 228, 235); animation-play-state: running; animation-delay: 0s;"></path></g><g class="path" style="transform: matrix(1, 0, 0, 1, 0, 14.925); opacity: 0.05; transform-origin: -0.285011px 5.1641px; animation: 1s linear 0.583846s 1 normal forwards running float-btt-in-d38a381a-c02b-4819-85d4-f5163b281999;"><path d="M139.05 7.48L139.05 7.48L139.05 7.48Q139.05 7.80 138.73 7.80L138.73 7.80L138.70 7.80L138.70 7.80Q137.81 7.80 136.69 7.18L136.69 7.18L136.69 7.18Q135.57 6.56 135.57 5.75L135.57 5.75L135.57 5.75Q135.57 4.94 136.59 2.93L136.59 2.93L136.59 2.93Q137.62 0.92 137.62 0.24L137.62 0.24L137.62 0.24Q137.62-0.49 136.92-2.38L136.92-2.38L136.92-2.38Q136.03-4.83 135.50-6.37L135.50-6.37L135.50-6.37Q134.97-7.91 134.37-9.09L134.37-9.09L134.37-9.09Q133.76-10.26 133.49-10.48L133.49-10.48L133.22-10.66L133.22-10.66Q132.92-10.83 132.92-11.02L132.92-11.02L132.92-11.02Q132.92-11.39 134.10-11.79L134.10-11.79L134.10-11.79Q135.27-12.18 136.16-12.18L136.16-12.18L136.16-12.18Q136.57-12.18 136.84-11.53L136.84-11.53L136.84-11.53Q137.32-10.26 137.89-8.02L137.89-8.02L137.89-8.02Q139.27-3.43 139.62-3.43L139.62-3.43L139.62-3.43Q139.86-3.43 140.60-5.32L140.60-5.32L140.60-5.32Q141.35-7.21 141.35-8.37L141.35-8.37L141.35-8.37Q141.35-10.39 140.16-10.75L140.16-10.75L140.16-10.75Q139.89-10.80 139.89-11.02L139.89-11.02L139.89-11.02Q139.89-11.50 141.16-11.95L141.16-11.95L141.16-11.95Q142.43-12.39 143.45-12.39L143.45-12.39L143.45-12.39Q144.34-12.39 144.34-11.23L144.34-11.23L144.34-11.23Q144.34-10.34 143.96-9.15L143.96-9.15L143.96-9.15Q143.59-7.96 143.26-7.28L143.26-7.28L143.26-7.28Q142.94-6.59 141.66-4.09L141.66-4.09L141.66-4.09Q140.37-1.59 139.54 0.30L139.54 0.30L139.54 0.30Q138.62 2.56 138.62 4.91L138.62 4.91L138.62 4.91Q138.62 6.16 138.83 6.78L138.83 6.78L138.83 6.78Q139.05 7.40 139.05 7.48" fill="#85a2b6" stroke="none" stroke-width="none" transform="translate(-138.91500854492188,7.459103463979877)" style="fill: rgb(220, 228, 235); animation-play-state: running; animation-delay: 0s;"></path></g><g class="path" style="transform: matrix(1, 0, 0, 1, 0, 14.925); opacity: 0.05; transform-origin: 17.2px -1.9759px; animation: 1s linear 0.304615s 1 normal forwards running float-btt-in-d38a381a-c02b-4819-85d4-f5163b281999;"><path d="M159.06-5.37L159.00-7.94L159.00-7.94Q159.00-8.56 158.25-8.61L158.25-8.61L156.33-8.61L156.33-8.61Q156.11-8.61 156.11-8.75L156.11-8.75L156.11-8.75Q156.28-9.53 156.68-10.00L156.68-10.00L156.68-10.00Q157.09-10.48 157.36-10.53L157.36-10.53L157.36-10.53Q158.11-10.64 159.84-10.64L159.84-10.64L159.84-10.64Q161.57-10.64 162-10.62L162-10.62L162-10.62Q162.43-10.61 162.54-10.53L162.54-10.53L162.54-10.53Q162.65-10.39 162.65-10.22L162.65-10.22L162.65-10.22Q162.65-10.04 162.55-7.98L162.55-7.98L162.55-7.98Q162.46-5.91 162.46-4.28L162.46-4.28L162.46-4.28Q162.46-2.65 162.57-2.23L162.57-2.23L162.57-2.23Q162.68-1.81 162.68-1.70L162.68-1.70L162.68-1.70Q162.68-1.27 161.92-0.77L161.92-0.77L161.92-0.77Q161.16-0.27 159.64 0.11L159.64 0.11L159.64 0.11Q158.11 0.49 156.28 0.49L156.28 0.49L156.28 0.49Q153.82 0.49 152.01-1.22L152.01-1.22L152.01-1.22Q150.61-2.56 150.08-4.16L150.08-4.16L150.08-4.16Q149.55-5.75 149.55-8.64L149.55-8.64L149.55-8.64Q149.55-19.36 157.41-19.36L157.41-19.36L157.41-19.36Q158.73-19.36 159.79-19.08L159.79-19.08L159.79-19.08Q160.84-18.79 161.64-17.97L161.64-17.97L161.64-17.97Q162.43-17.14 162.43-15.85L162.43-15.85L162.43-15.85Q162.43-15.17 162.16-14.47L162.16-14.47L162.16-14.47Q161.68-13.04 160.00-13.04L160.00-13.04L160.00-13.04Q159.08-13.04 158.61-13.51L158.61-13.51L158.61-13.51Q158.14-13.99 158.14-14.82L158.14-14.82L158.14-14.82Q158.14-15.15 158.49-15.23L158.49-15.23L158.49-15.23Q159.00-15.53 159.00-16.24L159.00-16.24L159.00-16.24Q159.00-16.96 158.46-17.35L158.46-17.35L158.46-17.35Q157.92-17.74 157.33-17.74L157.33-17.74L157.33-17.74Q156.03-17.74 155.14-16.81L155.14-16.81L155.14-16.81Q154.25-15.88 153.85-14.36L153.85-14.36L153.85-14.36Q153.17-11.66 153.17-8.86L153.17-8.86L153.17-8.86Q153.17-4.27 155.41-2.75L155.41-2.75L155.41-2.75Q156.25-2.16 157.17-2.16L157.17-2.16L157.17-2.16Q158.87-2.16 158.98-2.78L158.98-2.78L158.98-2.78Q159.06-3.62 159.06-5.37L159.06-5.37" fill="#85a2b6" stroke="none" stroke-width="none" transform="translate(-138.91500854492188,7.459103463979877)" style="fill: rgb(190, 89, 96); animation-play-state: running; animation-delay: 0s;"></path></g><g class="path" style="transform: matrix(1, 0, 0, 1, 0, 14.925); opacity: 0.05; transform-origin: 27.515px -8.1059px; animation: 1s linear 0.0761538s 1 normal forwards running float-btt-in-d38a381a-c02b-4819-85d4-f5163b281999;"><path d="M166.91-14.45L166.91-14.45L166.27-14.47L166.27-14.47Q165.54-14.47 165.32-14.12L165.32-14.12L165.32-14.12Q165.27-14.04 165.19-14.04L165.19-14.04L165.19-14.04Q164.84-14.04 164.84-15.24L164.84-15.24L164.84-15.24Q164.84-16.44 165.20-16.77L165.20-16.77L165.20-16.77Q165.56-17.09 166.47-17.09L166.47-17.09L166.47-17.09Q167.37-17.09 167.70-16.78L167.70-16.78L167.70-16.78Q168.02-16.47 168.02-15.74L168.02-15.74L168.02-15.74Q168.02-15.01 167.78-14.73L167.78-14.73L167.78-14.73Q167.53-14.45 166.91-14.45" fill="#85a2b6" stroke="none" stroke-width="none" transform="translate(-138.91500854492188,7.459103463979877)" style="fill: rgb(205, 231, 229); animation-play-state: running; animation-delay: 0s;"></path></g><g class="path" style="transform: matrix(1, 0, 0, 1, 0, 14.925); opacity: 0.05; transform-origin: 27.165px 1.6641px; animation: 1s linear 0.482308s 1 normal forwards running float-btt-in-d38a381a-c02b-4819-85d4-f5163b281999;"><path d="M164.75-0.81L164.75-0.81L165.05-7.10L165.05-7.10Q165.05-9.34 164.54-10.15L164.54-10.15L164.54-10.15Q164.38-10.42 164.16-10.56L164.16-10.56L164.16-10.56Q164.00-10.61 164.00-10.77L164.00-10.77L164.00-10.77Q164.00-11.26 165.38-11.72L165.38-11.72L165.38-11.72Q166.75-12.18 167.39-12.18L167.39-12.18L167.39-12.18Q168.02-12.18 168.05-11.85L168.05-11.85L168.05-11.85Q168.05-11.31 167.90-8.79L167.90-8.79L167.90-8.79Q167.75-6.26 167.75-3.48L167.75-3.48L167.75-3.48Q167.75-0.70 168.08-0.03L168.08-0.03L168.08-0.03Q168.16 0.11 168.16 0.24L168.16 0.24L168.16 0.24Q168.16 0.59 167.13 0.59L167.13 0.59L167.13 0.59Q166.10 0.59 165.02 0.05L165.02 0.05L165.02 0.05Q164.75-0.08 164.75-0.81" fill="#85a2b6" stroke="none" stroke-width="none" transform="translate(-138.91500854492188,7.459103463979877)" style="fill: rgb(190, 89, 96); animation-play-state: running; animation-delay: 0s;"></path></g><g class="path" style="transform: matrix(1, 0, 0, 1, 0, 14.925); opacity: 0.05; transform-origin: 33.51px -0.0908966px; animation: 1s linear 0.380769s 1 normal forwards running float-btt-in-d38a381a-c02b-4819-85d4-f5163b281999;"><path d="M169.40-10.53L169.40-10.53L169.48-11.61L169.48-11.61Q169.51-11.85 169.86-11.85L169.86-11.85L170.80-11.85L170.69-14.01L170.69-14.12L170.69-14.12Q170.69-14.74 171.64-15.31L171.64-15.31L171.64-15.31Q172.58-15.88 173.37-15.88L173.37-15.88L173.37-15.88Q173.61-15.88 173.61-15.66L173.61-15.66L173.61-15.63L173.61-15.63Q173.50-14.90 173.39-11.88L173.39-11.88L173.39-11.88Q174.58-11.88 174.91-11.93L174.91-11.93L174.91-11.93Q175.23-11.99 175.26-11.99L175.26-11.99L175.26-11.99Q175.45-11.99 175.45-11.66L175.45-11.66L175.45-11.66Q175.45-11.34 175.15-10.84L175.15-10.84L175.15-10.84Q174.85-10.34 174.50-10.31L174.50-10.31L173.37-10.31L173.37-10.31Q173.34-9.40 173.34-7.22L173.34-7.22L173.34-7.22Q173.34-5.05 173.38-3.65L173.38-3.65L173.38-3.65Q173.42-2.24 173.47-1.53L173.47-1.53L173.47-1.53Q173.53-0.81 173.60-0.38L173.60-0.38L173.60-0.38Q173.66 0.05 173.70 0.24L173.70 0.24L173.70 0.24Q173.75 0.43 173.75 0.49L173.75 0.49L173.75 0.49Q173.75 0.76 173.39 0.78L173.39 0.78L173.39 0.78Q172.34 0.78 171.30 0.49L171.30 0.49L171.30 0.49Q170.26 0.19 170.26-0.54L170.26-0.54L170.26-0.54Q170.83-5.08 170.83-10.29L170.83-10.29L170.83-10.29Q170.10-10.29 169.72-10.23L169.72-10.23L169.69-10.23L169.69-10.23Q169.45-10.23 169.40-10.53" fill="#85a2b6" stroke="none" stroke-width="none" transform="translate(-138.91500854492188,7.459103463979877)" style="fill: rgb(187, 206, 221); animation-play-state: running; animation-delay: 0s;"></path></g><g class="path" style="transform: matrix(1, 0, 0, 1, 0, 14.925); opacity: 0.05; transform-origin: 43.375px -1.9609px; animation: 1s linear 0.406154s 1 normal forwards running float-btt-in-d38a381a-c02b-4819-85d4-f5163b281999;"><path d="M180.39-11.96L180.39-11.96L180.39-11.58L185.17-11.58L185.17-11.64L185.17-11.64Q185.19-12.29 185.19-13.27L185.19-13.27L185.19-13.27Q185.19-14.26 185.17-15.00L185.17-15.00L185.17-15.00Q185.14-15.74 185.11-16.25L185.11-16.25L185.11-16.25Q185.09-16.77 185.04-17.14L185.04-17.14L185.04-17.14Q185.00-17.52 184.98-17.73L184.98-17.73L184.98-17.73Q184.95-17.93 184.95-18.09L184.95-18.09L184.95-18.09Q184.95-18.25 185.25-18.47L185.25-18.47L185.25-18.47Q186.54-19.33 188.14-19.33L188.14-19.33L188.14-19.33Q189.13-19.33 189.13-18.98L189.13-18.98L189.13-18.98Q189.13-18.95 189.08-18.68L189.08-18.68L189.08-18.68Q188.57-16.12 188.43-11.58L188.43-11.58L188.43-11.58Q188.35-7.05 188.35-6.72L188.35-6.72L188.35-6.72Q188.35-2.54 188.84-0.92L188.84-0.92L188.84-0.92Q188.92-0.70 188.92-0.55L188.92-0.55L188.92-0.55Q188.92-0.40 188.70-0.22L188.70-0.22L188.70-0.22Q187.70 0.43 186.11 0.43L186.11 0.43L186.11 0.43Q185.09 0.43 184.95-0.27L184.95-0.27L184.95-0.27Q184.87-0.65 184.87-1.44L184.87-1.44L184.87-1.44Q184.87-2.24 184.96-3.89L184.96-3.89L184.96-3.89Q185.06-5.54 185.11-9.64L185.11-9.64L180.39-9.64L180.39-9.64Q180.39-3.48 180.76-1.00L180.76-1.00L180.76-1.00Q180.76-0.35 179.52 0.07L179.52 0.07L179.52 0.07Q178.28 0.49 177.47 0.49L177.47 0.49L177.47 0.49Q176.66 0.49 176.66 0.24L176.66 0.24L176.66 0.24Q176.66 0.08 176.74-0.16L176.74-0.16L176.74-0.16Q177.25-1.30 177.25-9.29L177.25-9.29L177.25-9.64L175.66-9.64L175.66-9.64Q175.45-9.64 175.45-9.80L175.45-9.80L175.45-9.80Q175.45-9.86 175.55-10.22L175.55-10.22L175.55-10.22Q175.66-10.58 176.05-11.07L176.05-11.07L176.05-11.07Q176.44-11.56 176.93-11.56L176.93-11.56L177.23-11.56L177.23-11.56Q177.23-16.88 176.61-17.68L176.61-17.68L176.50-17.85L176.50-17.85Q176.34-17.98 176.34-18.18L176.34-18.18L176.34-18.18Q176.34-18.39 176.63-18.52L176.63-18.52L176.63-18.52Q177.04-18.77 178.08-19.01L178.08-19.01L178.08-19.01Q179.12-19.25 179.95-19.25L179.95-19.25L179.95-19.25Q180.79-19.25 180.79-18.87L180.79-18.87L180.79-18.79L180.79-18.79Q180.47-15.98 180.39-11.96" fill="#85a2b6" stroke="none" stroke-width="none" transform="translate(-138.91500854492188,7.459103463979877)" style="fill: rgb(220, 228, 235); animation-play-state: running; animation-delay: 0s;"></path></g><g class="path" style="transform: matrix(1, 0, 0, 1, 0, 14.925); opacity: 0.05; transform-origin: 56.535px 1.5341px; animation: 1s linear 0.558462s 1 normal forwards running float-btt-in-d38a381a-c02b-4819-85d4-f5163b281999;"><path d="M200.23-12.02L200.23-12.02L200.23-12.02Q199.75-9.10 199.75-4.59L199.75-4.59L199.75-4.59Q199.75-1.27 200.02-0.22L200.02-0.22L200.12 0.14L200.12 0.14Q200.12 0.49 199.53 0.49L199.53 0.49L199.53 0.49Q197.45 0.49 197.15-0.68L197.15-0.68L197.15-0.68Q197.13-0.81 197.03-0.81L197.03-0.81L197.03-0.81Q196.94-0.81 196.86-0.70L196.86-0.70L196.86-0.70Q196.02 0.40 194.27 0.40L194.27 0.40L194.27 0.40Q193.29 0.40 192.24-0.08L192.24-0.08L192.24-0.08Q191.59-0.38 191.19-1.12L191.19-1.12L191.19-1.12Q190.78-1.86 190.78-2.94L190.78-2.94L191.19-8.86L191.19-8.86Q191.19-10.72 190.81-11.50L190.81-11.50L190.81-11.50Q190.67-11.80 190.67-11.88L190.67-11.88L190.67-11.88Q190.67-12.04 190.81-12.10L190.81-12.10L190.81-12.10Q191.24-12.23 191.92-12.23L191.92-12.23L191.92-12.23Q194.53-12.23 194.53-10.07L194.53-10.07L194.53-10.07Q194.53-9.40 193.98-6.99L193.98-6.99L193.98-6.99Q193.43-4.59 193.43-3.58L193.43-3.58L193.43-3.58Q193.43-2.56 193.87-2.02L193.87-2.02L193.87-2.02Q194.32-1.48 195.12-1.48L195.12-1.48L195.12-1.48Q195.91-1.48 196.37-2.05L196.37-2.05L196.37-2.05Q196.83-2.62 196.91-3.19L196.91-3.19L196.99-3.75L196.99-3.75Q197.10-4.70 197.10-7.07L197.10-7.07L197.10-7.07Q197.10-9.45 196.95-10.08L196.95-10.08L196.95-10.08Q196.80-10.72 196.80-10.88L196.80-10.88L196.80-10.88Q196.80-11.56 197.88-11.95L197.88-11.95L197.88-11.95Q198.96-12.34 199.83-12.34L199.83-12.34L199.83-12.34Q200.23-12.34 200.23-12.02" fill="#85a2b6" stroke="none" stroke-width="none" transform="translate(-138.91500854492188,7.459103463979877)" style="fill: rgb(187, 206, 221); animation-play-state: running; animation-delay: 0s;"></path></g><g class="path" style="transform: matrix(1, 0, 0, 1, 0, 14.925); opacity: 0.05; transform-origin: 67.325px -1.6809px; animation: 1s linear 0.507692s 1 normal forwards running float-btt-in-d38a381a-c02b-4819-85d4-f5163b281999;"><path d="M206.98-9.31L206.98-9.31L206.36-9.15L206.36-9.15Q205.88-9.15 205.88-10.06L205.88-10.06L205.88-10.06Q205.88-10.96 206.54-11.52L206.54-11.52L206.54-11.52Q207.20-12.07 208.22-12.07L208.22-12.07L208.22-12.07Q208.79-12.07 209.44-11.73L209.44-11.73L209.44-11.73Q210.09-11.39 210.52-10.89L210.52-10.89L210.52-10.89Q210.95-10.39 211.29-9.33L211.29-9.33L211.29-9.33Q211.63-8.26 211.63-6.83L211.63-6.83L211.63-6.83Q211.63-3.54 209.86-1.48L209.86-1.48L209.86-1.48Q208.09 0.57 204.74 0.57L204.74 0.57L204.74 0.57Q203.77 0.57 202.82 0.38L202.82 0.38L202.55 0.32L202.55 0.32Q202.20 0.22 202.15-0.05L202.15-0.05L202.15-0.05Q202.07-0.62 202.07-2.73L202.07-2.73L202.23-11.47L202.23-11.47Q202.23-13.50 202.12-14.58L202.12-14.58L202.07-14.96L202.07-14.96Q202.01-15.71 201.76-16.25L201.76-16.25L201.76-16.25Q201.50-16.79 201.26-16.96L201.26-16.96L201.04-17.09L201.04-17.09Q200.85-17.20 200.85-17.33L200.85-17.33L200.85-17.33Q200.85-17.74 202.20-18.29L202.20-18.29L202.20-18.29Q203.55-18.85 204.17-18.85L204.17-18.85L204.17-18.85Q204.80-18.85 204.82-18.52L204.82-18.52L204.82-18.52Q205.01-16.88 205.01-13.82L205.01-13.82L204.88-7.34L204.88-7.34Q204.88-3.10 205.12-1.48L205.12-1.48L205.12-1.48Q205.15-1.11 205.97-1.11L205.97-1.11L205.97-1.11Q206.79-1.11 207.39-1.57L207.39-1.57L207.39-1.57Q207.98-2.02 208.28-2.78L208.28-2.78L208.28-2.78Q208.82-4.16 208.82-5.83L208.82-5.83L208.82-5.83Q208.82-6.62 208.60-7.53L208.60-7.53L208.60-7.53Q208.22-9.31 206.98-9.31" fill="#85a2b6" stroke="none" stroke-width="none" transform="translate(-138.91500854492188,7.459103463979877)" style="fill: rgb(160, 13, 30); animation-play-state: running; animation-delay: 0s;"></path></g><g class="path" style="transform: matrix(1, 0, 0, 1, 0, 14.925); opacity: 0.05; transform-origin: 85.09px -1.9759px; animation: 1s linear 0s 1 normal forwards running float-btt-in-d38a381a-c02b-4819-85d4-f5163b281999;"><path d="M223.83-11.31L223.83-11.31L223.83-11.31Q223.94-11.31 224.24-11.10L224.24-11.10L224.24-11.10Q224.53-10.88 224.86-10.88L224.86-10.88L224.88-10.88L224.88-10.88Q225.80-10.88 226.34-11.61L226.34-11.61L226.34-11.61Q226.88-12.34 226.94-13.07L226.94-13.07L227.02-13.80L227.02-13.80Q227.02-14.82 226.71-15.57L226.71-15.57L226.71-15.57Q226.40-16.31 225.99-16.67L225.99-16.67L225.99-16.67Q225.59-17.04 225.05-17.23L225.05-17.23L225.05-17.23Q224.37-17.50 223.63-17.50L223.63-17.50L223.63-17.50Q222.89-17.50 222.43-17.35L222.43-17.35L222.43-17.35Q221.97-17.20 221.91-17.06L221.91-17.06L221.89-16.90L221.89-16.90Q221.64-13.26 221.64-10.38L221.64-10.38L221.64-10.38Q221.64-7.51 221.74-5.43L221.74-5.43L221.74-5.43Q221.83-3.35 221.93-2.23L221.93-2.23L221.93-2.23Q222.02-1.11 222.02-1.00L222.02-1.00L222.02-1.00Q222.02-0.32 220.83 0.08L220.83 0.08L220.83 0.08Q219.65 0.49 218.48 0.49L218.48 0.49L218.48 0.49Q217.94 0.49 217.94 0.22L217.94 0.22L217.94 0.22Q217.94 0.14 218.03-0.16L218.03-0.16L218.03-0.16Q218.54-1.35 218.54-11.21L218.54-11.21L218.54-11.21Q218.54-17.01 217.76-17.85L217.76-17.85L217.76-17.85Q217.59-18.01 217.59-18.18L217.59-18.18L217.59-18.18Q217.59-18.36 217.98-18.58L217.98-18.58L217.98-18.58Q218.38-18.79 220.19-19.08L220.19-19.08L220.19-19.08Q221.99-19.36 224.02-19.36L224.02-19.36L224.02-19.36Q227.21-19.36 228.81-17.63L228.81-17.63L228.81-17.63Q230.42-15.90 230.42-13.51L230.42-13.51L230.42-13.51Q230.42-11.12 229.11-9.37L229.11-9.37L229.11-9.37Q227.80-7.61 225.69-7.61L225.69-7.61L225.69-7.61Q225.02-7.61 224.34-7.86L224.34-7.86L224.34-7.86Q222.99-8.34 222.99-9.88L222.99-9.88L222.99-9.88Q222.99-10.21 223.21-10.76L223.21-10.76L223.21-10.76Q223.43-11.31 223.83-11.31" fill="#85a2b6" stroke="none" stroke-width="none" transform="translate(-138.91500854492188,7.459103463979877)" style="fill: rgb(133, 162, 182); animation-play-state: running; animation-delay: 0s;"></path></g><g class="path" style="transform: matrix(1, 0, 0, 1, 0, 14.925); opacity: 0.05; transform-origin: 96.34px 1.5341px; animation: 1s linear 0.279231s 1 normal forwards running float-btt-in-d38a381a-c02b-4819-85d4-f5163b281999;"><path d="M239.44-9.29L239.30-7.24L239.41-6.29L239.41-6.29Q239.41-5.78 238.44-5.78L238.44-5.78L238.44-5.78Q236.47-5.78 236.47-7.26L236.47-7.26L236.47-7.26Q236.47-7.61 236.66-8.23L236.66-8.23L236.66-8.23Q236.84-8.86 236.84-9.31L236.84-9.31L236.84-9.31Q236.84-9.77 236.57-10.11L236.57-10.11L236.57-10.11Q236.30-10.45 235.79-10.45L235.79-10.45L235.79-10.45Q235.28-10.45 234.91-10.08L234.91-10.08L234.91-10.08Q234.55-9.72 234.47-9.34L234.47-9.34L234.36-8.96L234.36-8.96Q234.20-8.13 234.20-6.17L234.20-6.17L234.20-6.17Q234.20-4.21 234.25-3.09L234.25-3.09L234.25-3.09Q234.31-1.97 234.36-1.55L234.36-1.55L234.36-1.55Q234.41-1.13 234.41-1.05L234.41-1.05L234.41-1.05Q234.41-0.38 233.58 0.04L233.58 0.04L233.58 0.04Q232.74 0.46 231.90 0.46L231.90 0.46L231.90 0.46Q231.07 0.46 231.07 0.11L231.07 0.11L231.20-0.73L231.20-0.73Q231.58-3.08 231.58-6.86L231.58-6.86L231.58-6.86Q231.58-10.64 231.31-11.99L231.31-11.99L231.31-11.99Q231.31-12.31 231.88-12.31L231.88-12.31L231.88-12.31Q233.33-12.31 233.82-11.31L233.82-11.31L233.82-11.31Q233.85-11.21 233.91-11.21L233.91-11.21L233.91-11.21Q233.98-11.21 234.28-11.45L234.28-11.45L234.28-11.45Q235.17-12.18 236.39-12.18L236.39-12.18L236.39-12.18Q237.14-12.18 237.90-11.88L237.90-11.88L237.90-11.88Q239.44-11.26 239.44-9.29L239.44-9.29" fill="#85a2b6" stroke="none" stroke-width="none" transform="translate(-138.91500854492188,7.459103463979877)" style="fill: rgb(214, 146, 147); animation-play-state: running; animation-delay: 0s;"></path></g><g class="path" style="transform: matrix(1, 0, 0, 1, 0, 14.925); opacity: 0.05; transform-origin: 105.99px 1.6291px; animation: 1s linear 0.177692s 1 normal forwards running float-btt-in-d38a381a-c02b-4819-85d4-f5163b281999;"><path d="M242.62-10.18L242.62-10.18L242.62-10.18Q241.92-10.15 241.61-10.14L241.61-10.14L241.61-10.14Q241.30-10.13 241.30-10.29L241.30-10.29L241.30-10.29Q241.30-10.45 241.46-10.61L241.46-10.61L241.46-10.61Q243.19-12.20 247.29-12.20L247.29-12.20L247.29-12.20Q248.70-12.20 249.51-11.96L249.51-11.96L249.78-11.88L249.78-11.88Q250.10-11.74 250.10-11.58L250.10-11.58L250.10-11.58Q250.10-11.45 249.91-11.37L249.91-11.37L249.91-11.37Q249.18-11.15 248.51-10.68L248.51-10.68L248.51-10.68Q247.83-10.21 247.83-10.02L247.83-10.02L248.00-9.83L248.00-9.83Q248.86-9.34 249.33-8.29L249.33-8.29L249.33-8.29Q249.80-7.24 249.86-6.43L249.86-6.43L249.91-5.59L249.91-5.59Q249.91-2.92 248.43-1.19L248.43-1.19L248.43-1.19Q246.94 0.54 244.38 0.54L244.38 0.54L244.38 0.54Q243.08 0.54 242.14 0.08L242.14 0.08L242.14 0.08Q241.19-0.38 240.75-0.96L240.75-0.96L240.75-0.96Q240.30-1.54 240.03-2.27L240.03-2.27L240.03-2.27Q239.71-3.27 239.71-4.33L239.71-4.33L239.71-4.33Q239.71-5.40 240.07-6.48L240.07-6.48L240.07-6.48Q240.44-7.56 240.91-8.07L240.91-8.07L240.91-8.07Q241.38-8.59 241.97-8.91L241.97-8.91L241.97-8.91Q242.73-9.31 243.19-9.31L243.19-9.31L243.19-9.31Q243.65-9.31 243.65-9.13L243.65-9.13L243.49-8.86L243.49-8.86Q242.89-8.15 242.64-7.02L242.64-7.02L242.64-7.02Q242.38-5.89 242.38-5.01L242.38-5.01L242.38-5.01Q242.38-4.13 242.60-3.27L242.60-3.27L242.60-3.27Q242.81-2.40 243.08-1.98L243.08-1.98L243.08-1.98Q243.35-1.57 243.70-1.35L243.70-1.35L243.70-1.35Q244.22-1.03 244.78-1.03L244.78-1.03L244.78-1.03Q245.35-1.03 245.89-1.47L245.89-1.47L245.89-1.47Q246.43-1.92 246.67-2.65L246.67-2.65L246.67-2.65Q247.16-4.00 247.16-5.43L247.16-5.43L247.16-5.43Q247.16-7.70 246.01-8.94L246.01-8.94L246.01-8.94Q244.86-10.18 242.62-10.18" fill="#85a2b6" stroke="none" stroke-width="none" transform="translate(-138.91500854492188,7.459103463979877)" style="fill: rgb(133, 162, 182); animation-play-state: running; animation-delay: 0s;"></path></g><g class="path" style="transform: matrix(1, 0, 0, 1, 0, 14.925); opacity: 0.05; transform-origin: 114.67px 0.884103px; animation: 1s linear 0.533077s 1 normal forwards running float-btt-in-d38a381a-c02b-4819-85d4-f5163b281999;"><path d="M254.83-6.75L254.83-6.75L254.96-1.35L254.96-1.35Q254.96 0.35 254.52 1.66L254.52 1.66L254.52 1.66Q254.07 2.97 253.42 3.62L253.42 3.62L253.42 3.62Q252.10 5.00 251.10 5.18L251.10 5.18L250.64 5.29L250.64 5.29Q250.24 5.29 250.24 5.05L250.24 5.05L250.37 4.64L250.37 4.64Q252.34 1.92 252.34-8.75L252.34-8.75L252.34-8.75Q252.34-9.72 252.32-10.21L252.32-10.21L252.32-10.21Q251.75-10.21 251.18-10.13L251.18-10.13L251.15-10.13L251.15-10.13Q250.86-10.13 250.86-10.42L250.86-10.42L250.94-11.45L250.94-11.45Q250.97-11.69 251.32-11.69L251.32-11.69L252.29-11.69L252.29-13.50L252.34-16.07L252.34-16.07Q252.34-16.25 252.41-16.48L252.41-16.48L252.41-16.48Q252.48-16.71 252.99-17.19L252.99-17.19L252.99-17.19Q253.50-17.66 254.50-18.05L254.50-18.05L254.50-18.05Q255.50-18.44 256.22-18.44L256.22-18.44L256.22-18.44Q256.93-18.44 256.93-18.01L256.93-18.01L256.93-18.01Q256.93-17.85 256.69-17.74L256.69-17.74L256.69-17.74Q255.91-17.50 255.41-16.35L255.41-16.35L255.41-16.35Q254.91-15.20 254.91-12.45L254.91-12.45L254.91-11.69L254.91-11.69Q256.28-11.74 256.72-11.83L256.72-11.83L256.72-11.83Q256.91-11.83 256.91-11.50L256.91-11.50L256.91-11.50Q256.91-11.18 256.62-10.71L256.62-10.71L256.62-10.71Q256.34-10.23 255.92-10.22L255.92-10.22L255.92-10.22Q255.50-10.21 254.88-10.23L254.88-10.23L254.88-10.23Q254.83-8.18 254.83-6.75" fill="#85a2b6" stroke="none" stroke-width="none" transform="translate(-138.91500854492188,7.459103463979877)" style="fill: rgb(133, 162, 182); animation-play-state: running; animation-delay: 0s;"></path></g><g class="path" style="transform: matrix(1, 0, 0, 1, 0, 14.925); opacity: 0.05; transform-origin: 120.69px -8.1059px; animation: 1s linear 0.253846s 1 normal forwards running float-btt-in-d38a381a-c02b-4819-85d4-f5163b281999;"><path d="M260.09-14.45L260.09-14.45L259.44-14.47L259.44-14.47Q258.71-14.47 258.50-14.12L258.50-14.12L258.50-14.12Q258.44-14.04 258.36-14.04L258.36-14.04L258.36-14.04Q258.01-14.04 258.01-15.24L258.01-15.24L258.01-15.24Q258.01-16.44 258.38-16.77L258.38-16.77L258.38-16.77Q258.74-17.09 259.65-17.09L259.65-17.09L259.65-17.09Q260.55-17.09 260.87-16.78L260.87-16.78L260.87-16.78Q261.20-16.47 261.20-15.74L261.20-15.74L261.20-15.74Q261.20-15.01 260.95-14.73L260.95-14.73L260.95-14.73Q260.71-14.45 260.09-14.45" fill="#85a2b6" stroke="none" stroke-width="none" transform="translate(-138.91500854492188,7.459103463979877)" style="fill: rgb(205, 231, 229); animation-play-state: running; animation-delay: 0s;"></path></g><g class="path" style="transform: matrix(1, 0, 0, 1, 0, 14.925); opacity: 0.05; transform-origin: 120.34px 1.6641px; animation: 1s linear 0.609231s 1 normal forwards running float-btt-in-d38a381a-c02b-4819-85d4-f5163b281999;"><path d="M257.93-0.81L257.93-0.81L258.23-7.10L258.23-7.10Q258.23-9.34 257.71-10.15L257.71-10.15L257.71-10.15Q257.55-10.42 257.34-10.56L257.34-10.56L257.34-10.56Q257.18-10.61 257.18-10.77L257.18-10.77L257.18-10.77Q257.18-11.26 258.55-11.72L258.55-11.72L258.55-11.72Q259.93-12.18 260.56-12.18L260.56-12.18L260.56-12.18Q261.20-12.18 261.23-11.85L261.23-11.85L261.23-11.85Q261.23-11.31 261.08-8.79L261.08-8.79L261.08-8.79Q260.93-6.26 260.93-3.48L260.93-3.48L260.93-3.48Q260.93-0.70 261.25-0.03L261.25-0.03L261.25-0.03Q261.33 0.11 261.33 0.24L261.33 0.24L261.33 0.24Q261.33 0.59 260.31 0.59L260.31 0.59L260.31 0.59Q259.28 0.59 258.20 0.05L258.20 0.05L258.20 0.05Q257.93-0.08 257.93-0.81" fill="#85a2b6" stroke="none" stroke-width="none" transform="translate(-138.91500854492188,7.459103463979877)" style="fill: rgb(205, 231, 229); animation-play-state: running; animation-delay: 0s;"></path></g><g class="path" style="transform: matrix(1, 0, 0, 1, 0, 14.925); opacity: 0.05; transform-origin: 125.79px -1.6109px; animation: 1s linear 0.0253846s 1 normal forwards running float-btt-in-d38a381a-c02b-4819-85d4-f5163b281999;"><path d="M266.63-15.44L266.63-15.44L266.46-5.54L266.46-5.54Q266.46-0.89 266.76 0.03L266.76 0.03L266.76 0.03Q266.84 0.19 266.84 0.35L266.84 0.35L266.84 0.35Q266.84 0.68 266.06 0.68L266.06 0.68L266.06 0.68Q265.28 0.68 264.32 0.28L264.32 0.28L264.32 0.28Q263.36-0.11 263.36-0.73L263.36-0.73L263.36-0.73Q263.90-4.51 263.90-10.83L263.90-10.83L263.79-14.96L263.79-14.96Q263.74-15.71 263.48-16.25L263.48-16.25L263.48-16.25Q263.22-16.79 262.98-16.96L262.98-16.96L262.76-17.09L262.76-17.09Q262.57-17.20 262.57-17.33L262.57-17.33L262.57-17.33Q262.57-17.71 263.75-18.27L263.75-18.27L263.75-18.27Q264.92-18.82 266.03-18.82L266.03-18.82L266.03-18.82Q266.46-18.82 266.52-18.52L266.52-18.52L266.52-18.52Q266.63-17.82 266.63-15.44" fill="#85a2b6" stroke="none" stroke-width="none" transform="translate(-138.91500854492188,7.459103463979877)" style="fill: rgb(187, 206, 221); animation-play-state: running; animation-delay: 0s;"></path></g><g class="path" style="transform: matrix(1, 0, 0, 1, 0, 14.925); opacity: 0.05; transform-origin: 133.77px 1.5841px; animation: 1s linear 0.33s 1 normal forwards running float-btt-in-d38a381a-c02b-4819-85d4-f5163b281999;"><path d="M271.03-6.86L271.03-6.86L271.05-6.18L271.05-6.18Q271.05-6.02 271.27-6.02L271.27-6.02L271.27-6.02Q272.13-6.10 272.78-6.47L272.78-6.47L272.78-6.47Q273.43-6.83 273.75-7.29L273.75-7.29L273.75-7.29Q274.40-8.29 274.45-9.02L274.45-9.02L274.48-9.34L274.48-9.34Q274.48-10.80 273.32-10.80L273.32-10.80L273.32-10.80Q272.46-10.80 271.92-10.04L271.92-10.04L271.92-10.04Q271.03-8.86 271.03-6.86zM276.91-3.27L276.91-3.27L276.91-3.27Q276.91-2.24 276.49-1.47L276.49-1.47L276.49-1.47Q276.07-0.70 275.55-0.34L275.55-0.34L275.55-0.34Q275.02 0.03 274.32 0.24L274.32 0.24L274.32 0.24Q273.43 0.51 272.62 0.51L272.62 0.51L272.62 0.51Q270.35 0.51 269.27-1.19L269.27-1.19L269.27-1.19Q268.19-2.89 268.19-5.52L268.19-5.52L268.19-5.52Q268.19-8.15 269.53-10.21L269.53-10.21L269.53-10.21Q270.86-12.26 273.54-12.26L273.54-12.26L273.54-12.26Q275.97-12.26 276.83-10.56L276.83-10.56L276.83-10.56Q277.18-9.91 277.18-9.33L277.18-9.33L277.18-9.33Q277.18-8.75 277.13-8.41L277.13-8.41L277.13-8.41Q277.07-8.07 276.75-7.40L276.75-7.40L276.75-7.40Q276.43-6.72 275.89-6.18L275.89-6.18L275.89-6.18Q275.35-5.64 274.19-5.16L274.19-5.16L274.19-5.16Q273.02-4.67 271.46-4.51L271.46-4.51L271.46-4.51Q271.24-4.51 271.24-4.32L271.24-4.32L271.24-4.32Q271.24-4.08 271.42-3.60L271.42-3.60L271.42-3.60Q271.59-3.13 271.81-2.81L271.81-2.81L271.81-2.81Q272.40-2.05 273.56-2.05L273.56-2.05L273.56-2.05Q274.73-2.05 275.54-2.81L275.54-2.81L275.54-2.81Q275.97-3.21 276.24-3.81L276.24-3.81L276.24-3.81Q276.35-4.02 276.52-4.02L276.52-4.02L276.52-4.02Q276.70-4.02 276.80-3.73L276.80-3.73L276.80-3.73Q276.91-3.43 276.91-3.27" fill="#85a2b6" stroke="none" stroke-width="none" transform="translate(-138.91500854492188,7.459103463979877)" style="fill: rgb(160, 13, 30); animation-play-state: running; animation-delay: 0s;"></path></g></g>
</g>
</g>
<style id="float-btt-in-d38a381a-c02b-4819-85d4-f5163b281999" data-anikit="">@keyframes float-btt-in-d38a381a-c02b-4819-85d4-f5163b281999
{
  0% {
    animation-timing-function: cubic-bezier(0.2242,0.7499,0.3142,0.8148);
    transform: translate(0px,14.925px) rotate(0deg) scale(1,1) skewX(0deg) skewY(0deg);
    opacity: 0.05;
  }
  100% {
    transform: translate(0px,0px) rotate(0deg) scale(1,1) skewX(0deg) skewY(0deg);
    opacity: 1;
  }
}</style></svg>